<svg height="512" viewBox="0 0 24 24" width="512" xmlns="http://www.w3.org/2000/svg"><path d="M4.5 10.5H4v1h.5a.5.5 0 000-1zM19.5 10.5H19v1h.5a.5.5 0 000-1z"/><path d="M21.25 0H2.75A2.752 2.752 0 000 2.75v18.5A2.752 2.752 0 002.75 24h18.5A2.752 2.752 0 0024 21.25V2.75A2.752 2.752 0 0021.25 0zM4.5 13H4v1.25a.75.75 0 01-1.5 0v-4.5A.75.75 0 013.25 9H4.5c1.103 0 2 .897 2 2s-.897 2-2 2zm4.75.5H10v-.75a.75.75 0 011.5 0v1.5a.75.75 0 01-.75.75h-1.5c-.965 0-1.75-.785-1.75-1.75v-2.5C7.5 9.785 8.285 9 9.25 9h1.5a.75.75 0 010 1.5h-1.5a.25.25 0 00-.25.25v2.5c0 .138.112.25.25.25zm7.25-.5c0 1.103-.897 2-2 2s-2-.897-2-2V9.75a.75.75 0 011.5 0V13a.5.5 0 001 0V9.75a.75.75 0 011.5 0zm3 0H19v1.25a.75.75 0 01-1.5 0v-4.5a.75.75 0 01.75-.75h1.25c1.103 0 2 .897 2 2s-.897 2-2 2z"/></svg>